<svg width="27" height="27" viewBox="0 0 27 27" fill="none" xmlns="http://www.w3.org/2000/svg">
<path d="M15.2325 22.7872V14.092H18.207L18.6532 10.7023H15.2325V8.53844C15.2325 7.55735 15.5092 6.88874 16.9452 6.88874L18.7736 6.88801V3.85613C18.4574 3.81583 17.372 3.72342 16.1086 3.72342C13.4706 3.72342 11.6645 5.30282 11.6645 8.20272V10.7023H8.68103V14.092H11.6645V22.7872H15.2325Z" fill="white"/>
<mask id="mask0_2_9" style="mask-type:luminance" maskUnits="userSpaceOnUse" x="8" y="3" width="11" height="20">
<path d="M15.2325 22.7872V14.092H18.207L18.6532 10.7023H15.2325V8.53844C15.2325 7.55735 15.5092 6.88874 16.9452 6.88874L18.7736 6.88801V3.85613C18.4574 3.81583 17.372 3.72342 16.1086 3.72342C13.4706 3.72342 11.6645 5.30282 11.6645 8.20272V10.7023H8.68103V14.092H11.6645V22.7872H15.2325Z" fill="white"/>
</mask>
<g mask="url(#mask0_2_9)">
<rect x="0.340576" y="0.148926" width="26.2128" height="26.2128" fill="white"/>
</g>
</svg>
