<svg width="27" height="27" viewBox="0 0 27 27" fill="none" xmlns="http://www.w3.org/2000/svg">
<path d="M13.447 11.5872V14.9234H18.166C17.4771 16.865 15.6222 18.2596 13.447 18.2596C10.688 18.2596 8.44274 16.0143 8.44274 13.2553C8.44274 10.4963 10.688 8.25106 13.447 8.25106C14.643 8.25106 15.794 8.67975 16.6881 9.45875L18.8799 6.94328C17.3787 5.6355 15.4504 4.91489 13.447 4.91489C8.84808 4.91489 5.10657 8.6564 5.10657 13.2553C5.10657 17.8542 8.84808 21.5957 13.447 21.5957C18.0459 21.5957 21.7874 17.8542 21.7874 13.2553V11.5872H13.447Z" fill="black"/>
<mask id="mask0_2_20" style="mask-type:luminance" maskUnits="userSpaceOnUse" x="5" y="4" width="17" height="18">
<path d="M13.447 11.5872V14.9234H18.166C17.4771 16.865 15.6222 18.2596 13.447 18.2596C10.688 18.2596 8.44274 16.0143 8.44274 13.2553C8.44274 10.4963 10.688 8.25106 13.447 8.25106C14.643 8.25106 15.794 8.67975 16.6881 9.45875L18.8799 6.94328C17.3787 5.6355 15.4504 4.91489 13.447 4.91489C8.84808 4.91489 5.10657 8.6564 5.10657 13.2553C5.10657 17.8542 8.84808 21.5957 13.447 21.5957C18.0459 21.5957 21.7874 17.8542 21.7874 13.2553V11.5872H13.447Z" fill="white"/>
</mask>
<g mask="url(#mask0_2_20)">
<rect x="0.340576" y="0.148926" width="26.2128" height="26.2128" fill="white"/>
</g>
</svg>
